<?xml version="1.0" standalone="no"?>
<!DOCTYPE svg PUBLIC "-//W3C//DTD SVG 20010904//EN"
 "http://www.w3.org/TR/2001/REC-SVG-20010904/DTD/svg10.dtd">
<svg version="1.0"
    xmlns="http://www.w3.org/2000/svg"
    width="284.000000pt"
    height="243.000000pt"
    viewBox="0 0 284.000000 243.000000"
    preserveAspectRatio="xMidYMid meet">

    <g transform="translate(0.000000,243.000000) scale(0.100000,-0.100000)"
        fill="#000000"
        stroke="none">
        <path d="M1120 2260 c0 -6 113 -10 320 -10 207 0 320 4 320 10 0 6 -113 10
-320 10 -207 0 -320 -4 -320 -10z"/>
        <path d="M1125 2128 c10 -112 30 -207 47 -221 8 -7 22 -39 32 -72 10 -33 25
-73 33 -90 11 -20 12 -30 4 -33 -18 -6 -13 -22 8 -22 26 0 43 -24 36 -52 -5
-20 1 -31 33 -59 22 -19 50 -41 63 -50 12 -8 22 -23 22 -32 0 -12 9 -17 31
-17 25 0 34 6 44 30 7 16 29 39 48 50 116 73 202 285 229 573 l7 67 -322 0
-322 0 7 -72z"/>
        <path d="M860 2162 c-37 -38 -46 -88 -31 -181 28 -185 159 -332 319 -357 42
-7 44 -6 31 14 -8 12 -28 22 -52 26 -122 20 -232 146 -266 304 -15 71 -14 107
4 142 20 38 74 55 133 42 34 -8 42 -7 42 4 0 20 -42 34 -101 34 -42 0 -55 -5
-79 -28z"/>
        <path d="M1823 2180 c-13 -5 -23 -16 -23 -24 0 -11 8 -12 43 -4 85 19 147 -23
147 -101 0 -97 -49 -219 -117 -292 -53 -57 -101 -85 -160 -95 -24 -4 -44 -14
-52 -26 -13 -20 -11 -21 31 -14 161 26 292 173 319 358 14 96 6 143 -31 180
-24 24 -36 28 -82 27 -29 0 -63 -4 -75 -9z"/>
        <path d="M1332 1413 c3 -16 15 -18 88 -18 73 0 85 2 88 18 3 15 -6 17 -88 17
-82 0 -91 -2 -88 -17z"/>
        <path d="M1380 1315 c0 -34 1 -35 40 -35 39 0 40 1 40 35 0 34 -1 35 -40 35
-39 0 -40 -1 -40 -35z"/>
        <path d="M1277 1224 c-4 -4 -7 -13 -7 -21 0 -10 32 -13 151 -13 138 0 150 1
147 18 -3 15 -19 17 -144 20 -77 1 -143 -1 -147 -4z"/>
        <path d="M1170 1110 l0 -40 250 0 250 0 0 40 0 40 -250 0 -250 0 0 -40z"/>
        <path d="M522 820 c-43 -26 -67 -77 -58 -123 10 -52 40 -83 99 -102 87 -27 97
-35 97 -70 0 -27 -5 -35 -30 -45 -40 -17 -78 -6 -86 25 -5 20 -12 25 -39 25
-28 0 -33 -4 -39 -31 -3 -17 -6 -38 -6 -46 0 -42 178 -60 237 -23 45 27 66 73
60 129 -6 57 -39 87 -129 116 -58 19 -63 22 -66 52 -2 24 2 34 18 43 31 17 67
5 74 -25 5 -20 13 -25 36 -25 34 0 36 3 45 53 7 36 6 38 -29 52 -52 22 -144
19 -184 -5z"/>
        <path d="M834 814 c-6 -22 -3 -31 14 -42 21 -14 22 -22 22 -145 0 -119 -2
-133 -21 -153 -14 -15 -19 -29 -14 -44 6 -19 13 -21 88 -18 80 3 82 4 85 29 3
22 -2 29 -27 37 -26 9 -31 16 -31 45 l0 34 63 5 c110 9 157 51 157 140 0 101
-46 130 -211 136 l-118 4 -7 -28z m226 -64 c24 -24 26 -67 4 -98 -12 -18 -25
-22 -65 -22 l-49 0 0 70 0 70 45 0 c32 0 51 -6 65 -20z"/>
        <path d="M1345 826 c-61 -27 -88 -73 -100 -168 -10 -81 9 -162 50 -207 32 -34
36 -36 112 -39 69 -3 82 -1 112 20 58 39 75 79 79 188 3 84 1 100 -20 140 -15
29 -35 51 -58 62 -42 21 -132 23 -175 4z m135 -81 c18 -20 24 -39 28 -98 6
-95 -9 -144 -50 -161 -42 -18 -77 -8 -99 28 -17 26 -19 46 -17 124 3 85 5 96
27 113 33 27 82 25 111 -6z"/>
        <path d="M1688 834 c-14 -13 -9 -54 7 -60 23 -9 22 -289 -1 -302 -9 -5 -14
-18 -12 -33 3 -23 7 -24 85 -27 74 -3 82 -1 88 18 8 25 0 39 -31 50 -20 8 -24
16 -24 55 0 48 15 64 44 48 9 -5 34 -46 56 -91 l39 -82 50 0 c41 0 51 3 56 20
5 15 -2 28 -23 48 -16 15 -39 47 -51 70 -12 23 -26 42 -32 42 -5 0 8 17 31 38
36 35 40 44 40 86 0 96 -36 118 -200 124 -63 2 -118 1 -122 -4z m210 -80 c26
-18 30 -65 7 -84 -8 -7 -35 -15 -60 -18 l-45 -5 0 62 0 61 38 0 c21 0 48 -7
60 -16z"/>
        <path d="M2087 833 c-4 -3 -7 -23 -7 -44 0 -28 5 -38 20 -42 10 -3 24 1 31 9
6 8 27 14 45 14 l34 0 0 -145 c0 -120 -3 -147 -15 -151 -9 -4 -15 -19 -15 -35
l0 -29 75 0 75 0 0 30 c0 18 -6 33 -15 36 -12 5 -15 31 -15 150 l0 144 39 0
c24 0 41 -5 44 -14 4 -9 14 -12 26 -9 17 4 21 13 21 49 l0 44 -168 0 c-93 0
-172 -3 -175 -7z"/>
    </g>
</svg>
